<?xml version="1.0" encoding="UTF-8"?>
<svg version="1.1" xmlns="http://www.w3.org/2000/svg" width="94" height="101">
<path d="M0 0 C0.66 0 1.32 0 2 0 C2.103125 0.969375 2.20625 1.93875 2.3125 2.9375 C3.79147908 12.71848166 7.25721957 19.33886948 15.01171875 25.6328125 C19.06305718 28.55995754 23.28862974 31.18349451 27.55078125 33.7890625 C50.993455 48.17643799 50.993455 48.17643799 54 59 C54.77020919 65.05164364 52.96503734 68.90384207 50 74 C49.34 74 48.68 74 48 74 C47.896875 74.70125 47.79375 75.4025 47.6875 76.125 C46.90640997 79.39137647 45.57941257 82.0471852 44 85 C43.01 85 42.02 85 41 85 C40.90203125 83.9378125 40.8040625 82.875625 40.703125 81.78125 C39.61896808 71.09510186 38.43196143 63.0442974 29.72265625 55.9140625 C22.3572919 50.73611625 14.39004363 46.36535037 6.4765625 42.0859375 C-0.87066724 38.03293167 -6.21671345 33.84049835 -10.4375 26.5 C-12.27750304 18.32220871 -10.30697944 14.14412966 -6.02197266 7.21679688 C-5.07869312 5.76744039 -4.04561315 4.37735386 -3 3 C-2.34 3 -1.68 3 -1 3 C-0.67 2.01 -0.34 1.02 0 0 Z " fill="#AACE50" transform="translate(35,0)"/>
<path d="M0 0 C0.66 0 1.32 0 2 0 C2.25523438 1.03447266 2.25523438 1.03447266 2.515625 2.08984375 C6.26028917 16.61037663 11.46739045 24.6505011 24.65625 32.58984375 C26.6003467 33.71237109 28.54833931 34.82817581 30.5 35.9375 C40.80071393 42.0017623 50.00970545 47.66253323 55 59 C55.72149456 64.7719565 54.41899021 67.40573191 51 72 C51 72.66 51 73.32 51 74 C50.01 74.495 50.01 74.495 49 75 C48.06606559 76.655611 47.19897217 78.34950522 46.375 80.0625 C45.92898437 80.98160156 45.48296875 81.90070313 45.0234375 82.84765625 C44.68570313 83.55792969 44.34796875 84.26820312 44 85 C43.01 85 42.02 85 41 85 C41.01160156 84.33613281 41.02320313 83.67226562 41.03515625 82.98828125 C41.12439397 74.25573273 40.42383198 66.79166451 34.24414062 60.09814453 C28.05896008 54.46118275 21.3768201 50.58105916 14 46.6875 C11.74545599 45.49160039 9.49519259 44.28758383 7.25 43.07421875 C6.26515625 42.55432373 5.2803125 42.03442871 4.265625 41.4987793 C2 40 2 40 1 37 C-0.32149443 36.31016328 -1.65651065 35.64595557 -3 35 C-4.66796875 33.37890625 -4.66796875 33.37890625 -6.1875 31.5625 C-6.69667969 30.96566406 -7.20585937 30.36882813 -7.73046875 29.75390625 C-10.50215554 25.92471434 -10.68653807 21.54262656 -10 17 C-8.69719285 13.78706208 -6.96802801 10.92955141 -5.125 8 C-4.43470703 6.83791016 -4.43470703 6.83791016 -3.73046875 5.65234375 C-1.22262683 1.53076008 -1.22262683 1.53076008 0 0 Z " fill="#AACE4F" transform="translate(16,16)"/>
<path d="M0 0 C2.9719385 1.12451727 5.33440687 2.22293791 8 4 C8.30883789 6.19897461 8.30883789 6.19897461 8.22265625 8.90234375 C8.20396484 9.87494141 8.18527344 10.84753906 8.16601562 11.84960938 C8.13185547 12.86861328 8.09769531 13.88761719 8.0625 14.9375 C8.00255301 16.94636199 7.95138016 18.95551034 7.91015625 20.96484375 C7.88058838 21.8580835 7.85102051 22.75132324 7.82055664 23.67163086 C7.83027921 26.27530434 7.83027921 26.27530434 10 29 C12.41607417 29.79798218 12.41607417 29.79798218 15.125 30.1875 C16.49011719 30.42533203 16.49011719 30.42533203 17.8828125 30.66796875 C18.93082031 30.83232422 18.93082031 30.83232422 20 31 C19.125 34.875 19.125 34.875 18 36 C16.04762624 36.09990906 14.09164614 36.13080877 12.13671875 36.1328125 C10.93982422 36.13410156 9.74292969 36.13539062 8.50976562 36.13671875 C7.24841797 36.13285156 5.98707031 36.12898438 4.6875 36.125 C2.81288086 36.13080078 2.81288086 36.13080078 0.90039062 36.13671875 C-0.90075195 36.13478516 -0.90075195 36.13478516 -2.73828125 36.1328125 C-3.84212158 36.13168457 -4.94596191 36.13055664 -6.08325195 36.12939453 C-8.57328609 36.01893014 -10.62901909 35.72471628 -13 35 C-12.7421875 33.07421875 -12.7421875 33.07421875 -12 31 C-10.2578125 30.26953125 -10.2578125 30.26953125 -8.125 29.8125 C-5.59208356 28.98082703 -4.3199138 28.55394369 -2.96508789 26.20800781 C-1.16680835 20.40960555 -0.47697163 14.99475505 -0.3125 8.9375 C-0.27833984 8.07189453 -0.24417969 7.20628906 -0.20898438 6.31445312 C-0.12759886 4.21005613 -0.06210231 2.1050543 0 0 Z " fill="#3A3839" transform="translate(13,56)"/>
<path d="M0 0 C1.34888732 0.00015905 2.69778075 0.00584927 4.04663086 0.01586914 C5.10991859 0.01799156 5.10991859 0.01799156 6.19468689 0.02015686 C8.46699173 0.02577096 10.73919936 0.03832576 13.01147461 0.05102539 C14.54858257 0.05603858 16.08569206 0.0606018 17.62280273 0.06469727 C21.39823103 0.07574497 25.17358632 0.09301898 28.94897461 0.11352539 C27.21069336 3.98168945 27.21069336 3.98168945 24.85522461 5.16821289 C23.25264185 5.71454792 21.64846466 6.25622839 20.04272461 6.79321289 C17.71888035 7.99794959 17.71888035 7.99794959 16.70678711 10.72290039 C15.82399395 14.6727172 15.49904835 18.45453458 15.32397461 22.48852539 C15.28530273 23.22458008 15.24663086 23.96063477 15.20678711 24.71899414 C15.11339463 26.51679945 15.03013751 28.31512647 14.94897461 30.11352539 C11.57434746 29.56628856 9.86662461 29.05862539 6.94897461 27.11352539 C6.80311522 23.50070042 6.93338312 20.01366319 7.15405273 16.41040039 C7.34573577 11.71753122 7.34573577 11.71753122 5.21069336 7.62133789 C2.84930481 6.04707886 1.50077224 5.5503119 -1.30102539 5.36352539 C-2.53852539 5.28102539 -3.77602539 5.19852539 -5.05102539 5.11352539 C-3.92937302 0.14620777 -3.92937302 0.14620777 0 0 Z " fill="#393738" transform="translate(65.051025390625,8.886474609375)"/>
<path d="M0 0 C2.05078125 0.03255208 4.1015625 0.06510417 6.15234375 0.09765625 C5.49234375 1.74765625 4.83234375 3.39765625 4.15234375 5.09765625 C1.51234375 5.09765625 -1.12765625 5.09765625 -3.84765625 5.09765625 C-2.72914438 0.14424653 -2.72914438 0.14424653 0 0 Z " fill="#323031" transform="translate(63.84765625,8.90234375)"/>
<path d="M0 0 C0.99 0.495 0.99 0.495 2 1 C3.1845131 4.55353929 3.26641894 7.27013478 3 11 C2.01 11.99 1.02 12.98 0 14 C0 9.38 0 4.76 0 0 Z " fill="#BED879" transform="translate(68,71)"/>
<path d="M0 0 C3.71509263 1.23836421 5.28882864 3.22104936 8 6 C8.99 6.66 9.98 7.32 11 8 C11 8.66 11 9.32 11 10 C6.23439379 8.59835111 3.04117557 5.84588526 0 2 C0 1.34 0 0.68 0 0 Z " fill="#BAD676" transform="translate(27,29)"/>
<path d="M0 0 C0.66 0 1.32 0 2 0 C2.33 1.98 2.66 3.96 3 6 C2.34 6 1.68 6 1 6 C0.67 5.34 0.34 4.68 0 4 C-0.99 4.99 -1.98 5.98 -3 7 C-3.33 6.34 -3.66 5.68 -4 5 C-3.67 4.34 -3.34 3.68 -3 3 C-2.34 3 -1.68 3 -1 3 C-0.67 2.01 -0.34 1.02 0 0 Z " fill="#B6D26D" transform="translate(35,0)"/>
</svg>
